<mxfile host="app.diagrams.net" modified="2023-04-26T08:52:37.540Z" agent="Mozilla/5.0 (Windows NT 10.0; Win64; x64) AppleWebKit/537.36 (KHTML, like Gecko) Chrome/112.0.0.0 Safari/537.36" version="21.2.1" etag="Adcyk8a26yIvbCIWhzuU" type="github">
  <diagram name="第 1 页" id="4KX733zZgfxp3B9hwsKj">
    <mxGraphModel>
      <root>
        <mxCell id="0" />
        <mxCell id="1" parent="0" />
      </root>
    </mxGraphModel>
  </diagram>
</mxfile>
